<?xml version="1.0" standalone="no"?>
<!DOCTYPE svg PUBLIC "-//W3C//DTD SVG 20010904//EN"
 "http://www.w3.org/TR/2001/REC-SVG-20010904/DTD/svg10.dtd">
<svg version="1.0" xmlns="http://www.w3.org/2000/svg"
 width="274.000000pt" height="274.000000pt" viewBox="0 0 274.000000 274.000000"
 preserveAspectRatio="xMidYMid meet">
<metadata>
fdlane.com
</metadata>
<g transform="translate(0.000000,274.000000) scale(0.100000,-0.100000)"
fill="#000000" stroke="none">
<path d="M0 1370 l0 -1370 1370 0 1370 0 0 1370 0 1370 -1370 0 -1370 0 0
-1370z m880 245 c0 -116 -1 -125 -19 -125 -15 0 -21 10 -26 40 -19 112 -102
160 -276 160 l-69 0 0 -165 c0 -164 0 -165 23 -165 94 0 144 51 171 173 4 15
13 27 21 27 13 0 15 -33 15 -225 0 -192 -2 -225 -15 -225 -8 0 -17 12 -21 28
-19 84 -27 103 -54 126 -30 25 -86 46 -123 46 -18 0 -18 -11 -15 -170 3 -191
6 -198 77 -207 22 -3 41 -10 41 -14 0 -5 -99 -9 -220 -9 -121 0 -220 4 -220 9
0 4 19 11 41 14 50 7 58 14 70 63 10 44 12 598 3 657 -7 41 -41 67 -89 67 -14
0 -25 5 -25 10 0 6 125 10 355 10 l355 0 0 -125z m560 115 c130 -25 229 -101
282 -218 26 -55 32 -84 36 -163 10 -211 -84 -354 -271 -414 -74 -24 -90 -25
-323 -25 -134 0 -244 4 -244 9 0 4 19 11 41 14 76 10 74 -2 77 365 2 180 0
342 -3 359 -6 36 -45 63 -90 63 -14 0 -25 5 -25 10 0 13 450 13 520 0z m840 0
c0 -5 -11 -10 -24 -10 -31 0 -78 -18 -88 -33 -4 -7 -8 -166 -8 -354 l0 -343
25 -16 c35 -23 193 -16 248 10 46 23 92 86 119 167 14 40 25 59 35 57 8 -2 15
-5 16 -8 0 -3 -5 -69 -12 -147 l-14 -143 -373 0 c-206 0 -374 4 -374 9 0 4 19
11 42 14 80 11 78 3 78 392 0 389 2 381 -78 392 -23 3 -42 10 -42 14 0 5 101
9 225 9 143 0 225 -4 225 -10z"/>
<path d="M1240 1377 c0 -179 3 -344 6 -367 9 -56 34 -68 108 -51 69 15 117 60
147 138 31 79 38 286 15 387 -33 138 -92 197 -213 211 l-62 7 -1 -325z"/>
</g>
</svg>
